<svg xmlns="http://www.w3.org/2000/svg" width="30.833" height="30.959" viewBox="0 0 30.833 30.959">
  <g id="Calendar_Icon_-_Large" data-name="Calendar Icon - Large" transform="translate(0 0)">
    <g id="Minimum-Stay-No" transform="translate(0)">
      <path id="Path_5077" data-name="Path 5077" d="M30.857,2.932h-7.52V.676a.376.376,0,1,0-.752,0V2.932H9.048V.676a.376.376,0,0,0-.752,0V2.932H.776A.4.4,0,0,0,.4,3.308V24.3h0v0h0v6.58a.4.4,0,0,0,.376.376H30.857a.4.4,0,0,0,.376-.376V24.24h0v0h0V3.308A.361.361,0,0,0,30.857,2.932Zm-7.9,4.512a.4.4,0,0,0,.376-.376V5.627A1.486,1.486,0,0,1,24.4,7.068a1.441,1.441,0,1,1-2.883,0,1.486,1.486,0,0,1,1.065-1.441V7.068A.4.4,0,0,0,22.961,7.444Zm-14.289,0a.4.4,0,0,0,.376-.376V5.627a1.486,1.486,0,0,1,1.065,1.441,1.441,1.441,0,1,1-2.883,0A1.486,1.486,0,0,1,8.3,5.627V7.068A.4.4,0,0,0,8.672,7.444ZM1.152,3.621H8.3V4.875A2.153,2.153,0,0,0,6.479,7.006a2.193,2.193,0,1,0,4.387,0A2.161,2.161,0,0,0,9.048,4.875V3.621H22.585V4.875a2.212,2.212,0,0,0-1.817,2.131,2.193,2.193,0,1,0,4.387,0,2.161,2.161,0,0,0-1.817-2.131V3.621h7.144V10.64H1.152ZM30.481,17.283H23.713V11.392h6.768Zm-6.768,6.58V18.035h6.768v5.828ZM7.92,30.507H1.152V24.678H7.92v5.828Zm0-6.643H1.152V18.035H7.92v5.828Zm0-6.58H1.152V11.392H7.92v5.891Zm7.52,13.223H8.672V24.678h6.768C15.441,24.8,15.441,30.507,15.441,30.507Zm0-6.643H8.672V18.035h6.768S15.441,23.738,15.441,23.864Zm0-6.58H8.672V11.392h6.768v5.891Zm7.52,13.223H16.193V24.678h6.768Zm0-6.643H16.193V18.035h6.768Zm0-6.58H16.193V11.392h6.768Zm.752,13.223V24.678h6.768v5.828Z" transform="translate(-0.4 -0.3)" fill="#2b121d"/>
    </g>
  </g>
</svg>
