<?xml version="1.0" encoding="utf-8"?>
<!-- Generator: Adobe Illustrator 24.0.1, SVG Export Plug-In . SVG Version: 6.00 Build 0)  -->
<svg version="1.1" id="Layer_1" xmlns="http://www.w3.org/2000/svg" xmlns:xlink="http://www.w3.org/1999/xlink" x="0px" y="0px"
	 viewBox="0 0 50 50" style="enable-background:new 0 0 50 50;" xml:space="preserve">
<style type="text/css">
	.st0{fill:#000000;}
</style>
<g>
	<path class="st0" d="M25,8.2L25,8.2c0.4,0,0.7-0.3,0.7-0.7l0-7c0-0.2-0.1-0.3-0.2-0.5c-0.1-0.1-0.3-0.2-0.6-0.2
		c-0.3,0-0.6,0.3-0.6,0.7v7c0,0.2,0.1,0.3,0.2,0.5C24.6,8.1,24.8,8.2,25,8.2z"/>
	<path class="st0" d="M40.1,9.4c0.2,0,0.4-0.1,0.5-0.2l4.7-5.2c0.1-0.1,0.2-0.3,0.2-0.5c0-0.2-0.1-0.3-0.2-0.5
		c-0.1-0.1-0.3-0.2-0.5-0.2c0,0,0,0,0,0c-0.2,0-0.3,0.1-0.4,0.2l-4.7,5.2c-0.1,0.1-0.2,0.3-0.2,0.5c0,0.2,0.1,0.3,0.2,0.5
		C39.8,9.3,40,9.4,40.1,9.4z"/>
	<path class="st0" d="M47.7,28.2l-8.2-14c-0.1-0.2-0.3-0.3-0.6-0.3l-28.1,0c-0.2,0-0.4,0.1-0.5,0.3l-8.2,14
		c-0.2,0.3-0.1,0.6,0.1,0.8l22.1,21c0.1,0.1,0.3,0.2,0.5,0.2c0.1,0,0.3,0,0.5-0.2l22.1-21C47.8,28.8,47.9,28.4,47.7,28.2z
		 M45.9,27.8l-10.7,0l3.9-11.7L45.9,27.8z M45.4,29.2L27,46.7l7.8-17.5L45.4,29.2z M33.3,29.2L25,47.8l-8.3-18.7L33.3,29.2z
		 M15.2,29.2L23,46.7L4.5,29.2L15.2,29.2z M23.7,15.2L15.9,27l-3.9-11.8L23.7,15.2z M16.9,27.8L25,15.7l8.1,12.1L16.9,27.8z
		 M38.1,15.2L34.1,27l-7.9-11.8L38.1,15.2z M14.7,27.8L4,27.8l6.8-11.7L14.7,27.8z"/>
	<path class="st0" d="M9.4,9.1c0.1,0.1,0.3,0.2,0.5,0.2c0.2,0,0.3-0.1,0.4-0.2c0.1-0.1,0.2-0.3,0.2-0.5c0-0.2-0.1-0.3-0.2-0.5L5.7,3
		C5.6,2.9,5.4,2.8,5.2,2.8h0C5,2.8,4.8,2.9,4.7,3C4.6,3.1,4.5,3.3,4.5,3.5c0,0.2,0.1,0.3,0.2,0.4L9.4,9.1z"/>
</g>
</svg>
