<svg id="Gift_Icon" data-name="Gift Icon" xmlns="http://www.w3.org/2000/svg" width="32.316" height="30.959" viewBox="0 0 32.316 30.959">
  <path id="Gift" d="M32.316,7.627a.5.5,0,0,0-.517-.452H25.465l.517-.646a3.722,3.722,0,0,0,.776-2.456,4.12,4.12,0,0,0-1.1-2.844A3.87,3.87,0,0,0,22.944.065c-3.232,0-5.235,2.779-6.269,5.171l-.517.969-.452-1.034C14.607,2.844,12.668,0,9.436,0A3.618,3.618,0,0,0,6.722,1.163,4.01,4.01,0,0,0,5.558,4.007a4.113,4.113,0,0,0,.776,2.456l.517.711H.517A.5.5,0,0,0,0,7.627v7.691a.5.5,0,0,0,.452.517H2.2V28.7A2.29,2.29,0,0,0,4.46,30.959H27.792A2.29,2.29,0,0,0,30.054,28.7V15.77H31.8a.5.5,0,0,0,.452-.517Zm-.969.452v6.786H20.617V8.079ZM20.617,30.054V15.835h8.467V28.7a1.3,1.3,0,0,1-1.293,1.293H20.617ZM22.88,1.034h.129a2.9,2.9,0,0,1,2,.9,2.873,2.873,0,0,1,.84,2.133v.194h0a2.9,2.9,0,0,1-2.908,2.908H16.8l.259-.582C18.42,2.908,20.488,1.034,22.88,1.034ZM3.167,15.835h8.467V30.054H4.524a1.3,1.3,0,0,1-1.293-1.293V15.835ZM11.7,8.079v6.786H.969V8.079ZM6.463,4.072a3.1,3.1,0,0,1,.776-2.133,2.65,2.65,0,0,1,2-.9h.129c2.391,0,4.46,1.939,5.881,5.558l.259.517H9.372A2.9,2.9,0,0,1,6.463,4.2h0ZM12.6,15.835h7.045V30.054H12.6Zm0-.969V8.079h7.045v6.786Z" transform="translate(0)" fill="#2b121d"/>
</svg>
