<svg id="Star" xmlns="http://www.w3.org/2000/svg" width="15.648" height="15.648" viewBox="0 0 15.648 15.648">
  <path id="Path_5198" data-name="Path 5198" d="M8.088.265a7.824,7.824,0,1,0,7.823,7.823A7.83,7.83,0,0,0,8.088.265ZM8.05,1.79l1.81,3.583a.34.34,0,0,0,.256.186l3.975.538L11.248,8.927a.34.34,0,0,0-.1.3l.717,3.95L8.3,11.342a.34.34,0,0,0-.319.005L4.457,13.256l.638-3.962a.34.34,0,0,0-.1-.3l-2.9-2.77L6.057,5.6a.34.34,0,0,0,.252-.186Z" transform="translate(-0.264 -0.265)" fill="#72a8a8"/>
</svg>
